# xmcd
#
# Track frame offsets:
#	150
#	13454
#	29154
#	45295
#	58469
#	72790
#	87792
#	104073
#	121374
#	134864
#	151229
#	163921
#	176631
#	194120
#	208465
#	224043
#
# Disc length: 3200 seconds
#
# Revision: 1
# Processed by: cddbd v1.5.2PL0 Copyright (c) Steve Scherf et al.
# Submitted via: EZCDAudioConverter 2.4.0.1
#
DISCID=0e0c7e10
DTITLE=Various Artist - Festa Sertaneja 2
DYEAR=1900
DGENRE=country
TTITLE0=Michel Teló - Ai Se Eu Te Pego
TTITLE1=Gusttavo Lima - Balada
TTITLE2=Fernando e Sorocaba  - Pega Eu
TTITLE3=Guilherme e Santiago - Bolo Doido
TTITLE4=Carlos e Jader - Sou Foda 
TTITLE5=Léo e Junior - Ô La em Casa
TTITLE6=Henrique e Diego - Zoar e Beber
TTITLE7=Luan Santana - As Lembraças Vão na Mala
TTITLE8=Bruninho e Davi - Vamo Mexê
TTITLE9=Munhoz e Mariano - Comendo Água
TTITLE10=Pedro Henrique e Fernando  - To mais bonito
TTITLE11=Marcos e Belutti - Nova Namorada
TTITLE12=Relber e Allan - Valeu
TTITLE13=Hugo and Gabriel  - Deslumbrante 
TTITLE14=Cristiano Araujo - Efeitos
TTITLE15=Humberto e Ronaldo - Deixa o Tempo Vê
EXTD=
EXTT0=
EXTT1=
EXTT2=
EXTT3=
EXTT4=
EXTT5=
EXTT6=
EXTT7=
EXTT8=
EXTT9=
EXTT10=
EXTT11=
EXTT12=
EXTT13=
EXTT14=
EXTT15=
PLAYORDER=
